HIERARCHY
ROOT base
{
	OFFSET 0.000000 0.000000 0.000000
	CHANNELS 6 Xposition Yposition Zposition Xrotation Yrotation Zrotation
	JOINT torso
	{
		OFFSET 0.000000 0.000000 0.522674
		CHANNELS 3 Xrotation Yrotation Zrotation
		JOINT head
		{
			OFFSET 0.000000 0.000000 0.302405
			CHANNELS 3 Xrotation Yrotation Zrotation
			End Site
			{
				OFFSET 0.000000 0.000000 0.195674
			}
		}
		JOINT arm.upper.left
		{
			OFFSET 0.123316 0.000000 0.245458
			CHANNELS 6 Xposition Yposition Zposition Xrotation Yrotation Zrotation
			JOINT arm.lower.left
			{
				OFFSET 0.010098 0.000000 -0.198052
				CHANNELS 3 Xrotation Yrotation Zrotation
				End Site
				{
					OFFSET 0.004139 0.000000 -0.183228
				}
			}
		}
		JOINT arm.upper.right
		{
			OFFSET -0.123316 0.000000 0.245458
			CHANNELS 6 Xposition Yposition Zposition Xrotation Yrotation Zrotation
			JOINT arm.lower.right
			{
				OFFSET -0.010098 0.000000 -0.198052
				CHANNELS 3 Xrotation Yrotation Zrotation
				End Site
				{
					OFFSET -0.004139 0.000000 -0.183228
				}
			}
		}
	}
	JOINT leg.upper.left
	{
		OFFSET 0.061056 0.000000 0.482372
		CHANNELS 6 Xposition Yposition Zposition Xrotation Yrotation Zrotation
		JOINT leg.lower.left
		{
			OFFSET 0.008277 0.000000 -0.229460
			CHANNELS 3 Xrotation Yrotation Zrotation
			End Site
			{
				OFFSET 0.002935 0.000000 -0.252034
			}
		}
	}
	JOINT leg.upper.right
	{
		OFFSET -0.061056 0.000000 0.482372
		CHANNELS 6 Xposition Yposition Zposition Xrotation Yrotation Zrotation
		JOINT leg.lower.right
		{
			OFFSET -0.008277 0.000000 -0.229460
			CHANNELS 3 Xrotation Yrotation Zrotation
			End Site
			{
				OFFSET -0.002935 0.000000 -0.252034
			}
		}
	}
}
MOTION
Frames: 20
Frame Time: 0.041667
0.000000 0.000000 0.000000 -0.000000 0.000000 -0.000000 -0.000000 0.000000 -0.000000 -0.000000 0.000000 -0.000000 0.123316 0.000000 0.245458 1.064670 -0.599910 0.092786 -0.288209 1.945389 0.062642 -0.123316 0.000000 0.245458 0.754473 0.750649 -0.056877 0.275601 -1.941628 0.064461 0.061056 0.000000 0.482372 -1.130215 0.828097 -0.093450 0.305301 -0.798895 -0.113003 -0.061056 0.000000 0.482371 1.840727 -0.780485 -0.102328 -0.312150 0.801375 0.049635 
-0.000000 0.000200 -0.002997 -0.000000 0.000000 -0.000000 -0.000000 -0.000000 -4.521159 -0.000000 0.000000 0.000000 0.123316 0.000000 0.245458 1.043289 -0.607614 0.105967 -6.527889 -2.063086 -0.093434 -0.123316 0.000000 0.245458 0.754473 0.750650 -0.056877 -3.396316 5.068809 0.264649 0.061056 0.000000 0.482372 -1.688054 0.970725 -0.115830 -2.212370 -0.476467 -0.182589 -0.061056 0.000000 0.482372 3.892472 -2.024304 -0.239806 -0.244130 0.831929 0.048082 
-0.000000 0.000722 -0.010836 -0.000000 0.000000 -0.000000 -0.000000 -0.000000 -16.391923 -0.000000 0.000000 0.000002 0.123316 0.000000 0.245458 0.988131 -0.674088 0.140870 -23.682139 -12.537285 -2.705005 -0.123316 0.000000 0.245458 0.754473 0.750649 -0.056880 -14.688435 23.721162 3.190967 0.061056 0.000000 0.482371 -3.146910 1.344777 -0.167793 -8.815043 0.381766 -0.297227 -0.061056 -0.000000 0.482372 9.274348 -5.303412 -0.388367 -0.066197 0.911840 0.043851 
-0.000000 0.001245 -0.018674 -0.000000 0.000000 -0.000000 -0.000000 -0.000000 -28.247200 0.000000 0.000000 0.000000 0.123316 0.000000 0.245458 0.935109 -0.865519 0.176839 -42.200518 -21.711448 -8.627641 -0.123316 0.000000 0.245458 0.754473 0.750649 -0.056877 -31.523321 41.279488 11.703025 0.061056 0.000000 0.482371 -4.605911 1.720202 -0.210232 -15.414087 1.247655 -0.312402 -0.061056 0.000000 0.482372 14.683088 -8.581507 -0.226579 0.111740 0.991742 0.039371 
-0.000000 0.001445 -0.021671 -0.000000 0.000000 -0.000000 -0.000000 0.000000 -32.940998 -0.000000 -0.000000 -0.000002 0.123316 0.000000 0.245458 0.919101 -1.188616 0.192776 -49.594290 -24.555596 -11.686122 -0.123316 0.000000 0.245458 0.754473 0.750649 -0.056880 -44.044133 47.190996 18.343839 0.061056 0.000000 0.482371 -5.165660 1.864712 -0.223983 -17.928487 1.577017 -0.291950 -0.061056 0.000000 0.482372 16.759329 -9.824347 -0.082061 0.179772 1.022290 0.037592 
-0.000000 0.001445 -0.021511 -0.000000 0.000000 -0.000000 0.000000 0.000000 -29.552473 -0.000000 -0.000000 -0.000000 0.123316 0.000000 0.245458 1.127921 -1.882025 0.202139 -47.179402 -23.956706 -10.777056 -0.123316 0.000000 0.245458 0.209905 0.835883 -0.081864 -48.053338 44.600049 16.109184 0.061056 0.000000 0.482372 -4.290172 1.765122 -0.207652 -17.106598 1.443839 -0.305584 -0.061056 0.000000 0.482372 15.525165 -9.545954 -0.160061 -0.021112 0.988338 0.043424 
-0.000000 0.001445 -0.020994 -0.000000 0.000000 -0.000000 0.000000 0.000000 -18.335721 -0.000000 -0.000000 -0.000000 0.123316 0.000000 0.245458 1.734049 -3.186069 0.232344 -40.055194 -21.922015 -8.232167 -0.123316 0.000000 0.245458 -1.402389 1.089599 -0.151081 -48.523436 36.090634 6.558972 0.061056 0.000000 0.482371 -1.687427 1.469113 -0.150037 -14.670335 1.048096 -0.334572 -0.061056 0.000000 0.482372 11.865012 -8.692547 -0.355360 -0.615450 0.887748 0.059984 
-0.000000 0.001445 -0.020095 -0.000000 0.000000 -0.000000 -0.000000 -0.000000 0.019374 -0.000000 0.000000 0.000000 0.123316 0.000000 0.245458 2.657077 -4.947017 0.299508 -29.374813 -18.139927 -4.896419 -0.123316 -0.000000 0.245458 -3.861380 1.480092 -0.242859 -49.090581 21.815457 -7.610739 0.061056 0.000000 0.482372 2.291252 1.021990 -0.036108 -10.948400 0.442128 -0.345843 -0.061056 0.000000 0.482371 6.274865 -7.321524 -0.543870 -1.521046 0.734139 0.083208 
-0.000000 0.001445 -0.018862 -0.000000 0.000000 -0.000000 0.000000 -0.000000 21.380195 -0.000000 0.000000 0.000000 0.123316 0.000000 0.245458 3.708128 -6.836415 0.406861 -17.700135 -13.012498 -2.083985 -0.123316 0.000000 0.245458 -6.651779 1.927540 -0.326624 -52.587781 5.266828 -23.063816 0.061056 0.000000 0.482372 6.809433 0.525075 0.130513 -6.719576 -0.245151 -0.310004 -0.061056 0.000000 0.482372 -0.056871 -5.665997 -0.584044 -2.548182 0.559479 0.106607 
-0.000000 0.001445 -0.017419 -0.000000 0.000000 -0.000000 0.000000 -0.000000 39.496443 -0.000000 0.000000 0.000000 0.123316 0.000000 0.245458 4.640133 -8.450121 0.528761 -7.902081 -7.863943 -0.547448 -0.123316 0.000000 0.245458 -9.110706 2.324789 -0.382309 -58.271431 -7.926549 -36.769193 0.061056 0.000000 0.482371 10.786084 0.099757 0.309128 -2.991119 -0.846546 -0.235004 -0.061056 0.000000 0.482371 -5.599031 -4.079276 -0.445893 -3.453588 0.405175 0.124635 
-0.000000 0.001445 -0.015911 -0.000000 0.000000 -0.000000 0.000000 -0.000000 50.585484 0.000000 0.000000 0.000000 0.123316 0.000000 0.245458 5.255098 -9.488197 0.622502 -1.754278 -3.967058 -0.035692 -0.123316 -0.000000 0.245458 -10.722933 2.586364 -0.409542 -63.132251 -15.267189 -45.946706 0.061056 0.000000 0.482372 13.387682 -0.171324 0.441738 -0.543509 -1.236702 -0.162339 -0.061056 0.000000 0.482372 -9.189848 -2.844651 -0.232819 -4.047707 0.303770 0.135138 
-0.000000 0.001445 -0.014447 -0.000000 0.000000 -0.000000 -0.000000 0.000000 54.153749 0.000000 -0.000000 0.000002 0.123316 0.000000 0.245458 5.463586 -9.834784 0.656601 0.237387 -1.842194 0.037442 -0.123316 -0.000000 0.245458 -11.267468 2.674863 -0.417074 -64.931562 -17.475188 -49.074267 0.061056 0.000000 0.482372 14.264956 -0.261332 0.489206 0.292558 -1.366933 -0.129928 -0.061056 0.000000 0.482372 -10.360662 -2.077569 -0.071621 -4.248498 0.269473 0.138451 
-0.000000 0.001395 -0.012773 -0.000000 0.000000 -0.000000 0.000000 -0.000000 52.358516 -0.000000 0.000000 0.000000 0.123316 0.000000 0.245458 5.307886 -9.515567 0.624821 0.169303 -0.704110 0.034389 -0.123316 0.000000 0.245458 -10.850929 2.607161 -0.411391 -62.694805 -17.911824 -47.335158 0.061056 0.000000 0.482371 13.731989 -0.226449 0.464260 0.305465 -1.346437 -0.124247 -0.061056 0.000000 0.482371 -9.893255 -1.596349 0.018654 -4.111940 0.288024 0.135983 
-0.000000 0.001245 -0.010625 -0.000000 0.000000 -0.000000 -0.000000 0.000000 46.931166 0.000000 -0.000000 -0.000000 0.123316 0.000000 0.245458 4.844787 -8.561792 0.535313 0.087216 0.247859 0.035030 -0.123316 -0.000000 0.245458 -9.606840 2.405199 -0.391468 -55.748096 -18.839122 -41.896981 0.061056 0.000000 0.482372 12.139513 -0.120843 0.391665 0.313711 -1.287161 -0.119670 -0.061056 -0.000000 0.482372 -8.607672 -1.218200 0.067795 -3.704294 0.343364 0.128351 
-0.000000 0.001009 -0.008136 -0.000000 0.000000 -0.000000 -0.000000 0.000000 38.217463 -0.000000 -0.000000 -0.000000 0.123316 0.000000 0.245458 4.120367 -7.057824 0.410463 -0.004099 0.979628 0.039065 -0.123316 -0.000000 0.245458 -7.646464 2.087934 -0.351192 -44.234279 -18.982812 -32.831773 0.061056 0.000000 0.482372 9.628651 0.049675 0.283233 0.317204 -1.194444 -0.116344 -0.061056 0.000000 0.482372 -6.615839 -0.954488 0.071898 -3.062448 0.430381 0.115538 
-0.000000 0.000722 -0.005562 -0.000000 0.000000 -0.000000 -0.000000 0.000000 27.442078 -0.000000 -0.000000 -0.000000 0.123316 0.000000 0.245458 3.244625 -5.222836 0.284607 -0.095949 1.478331 0.045344 -0.123316 -0.000000 0.245458 -5.256750 1.703309 -0.287453 -30.062333 -16.762097 -21.770594 0.061056 0.000000 0.482371 6.566638 0.263821 0.161252 0.316593 -1.081804 -0.114275 -0.061056 0.000000 0.482372 -4.203558 -0.804543 0.039384 -2.280476 0.536187 0.098613 
-0.000000 0.000435 -0.003232 -0.000000 0.000000 -0.000000 -0.000000 0.000000 16.661692 -0.000000 -0.000000 -0.000000 0.123316 0.000000 0.245458 2.375026 -3.386119 0.187147 -0.177415 1.766656 0.052146 -0.123316 0.000000 0.245458 -2.866952 1.321673 -0.207744 -16.786319 -12.102411 -11.753267 0.061056 0.000000 0.482372 3.504861 0.484165 0.050878 0.313377 -0.969328 -0.113261 -0.061056 0.000000 0.482372 -1.798162 -0.748168 -0.010967 -1.498457 0.641753 0.080245 
-0.000000 0.000200 -0.001442 -0.000000 0.000000 -0.000000 -0.000000 0.000000 7.936564 -0.000000 -0.000000 -0.000000 0.123316 0.000000 0.245458 1.664853 -1.878141 0.128132 -0.239141 1.899182 0.057847 -0.123316 0.000000 0.245458 -0.906393 1.011321 -0.130535 -7.057734 -6.920615 -4.815803 0.061056 0.000000 0.482372 0.994535 0.669004 -0.030742 0.309450 -0.877075 -0.112945 -0.061056 0.000000 0.482371 0.172569 -0.749218 -0.058972 -0.856498 0.728213 0.064091 
-0.000000 0.000050 -0.000354 -0.000000 0.000000 -0.000000 -0.000000 0.000000 2.498547 -0.000000 -0.000000 -0.000000 0.123316 0.000000 0.245458 1.215133 -0.920602 0.100394 -0.276236 1.940655 0.061450 -0.123316 0.000000 0.245458 0.337865 0.815827 -0.076059 -1.487167 -3.224830 -1.074947 0.061056 0.000000 0.482372 -0.597440 0.787992 -0.078280 0.306427 -0.818509 -0.112954 -0.061056 0.000000 0.482372 1.422433 -0.769507 -0.091244 -0.448748 0.783030 0.053329 
0.000000 0.000000 0.000000 -0.000000 0.000000 -0.000000 -0.000000 0.000000 0.699023 -0.000000 -0.000000 -0.000000 0.123316 0.000000 0.245458 1.064670 -0.599910 0.092786 -0.288209 1.945389 0.062642 -0.123316 0.000000 0.245458 0.754473 0.750649 -0.056877 0.275601 -1.941628 0.064461 0.061056 0.000000 0.482372 -1.130215 0.828097 -0.093450 0.305301 -0.798895 -0.113003 -0.061056 0.000000 0.482371 1.840727 -0.780485 -0.102328 -0.312150 0.801375 0.049635 
